.
..............................Site Info...........................

 -   http://www.scenetime.com  *_*   

SceneTime is going to Close sign up on march/1, hurry up! get in before the doors are closed.

     We care to share . Join us on  http://www.scenetime.com 

    Be the first to get new release at  http://www.scenetime.com

        Seed back for speed


...................................NFO:.................................................








































          
          
              
              
                    
                    
                    
                    

Death.Stop.Holocaust.2009.DVDRiP.XviD-SiC

Poster:
[img]http://img715.imageshack.us/img715/5015/death20stop20holocaust2.jpg[/img]

IMDB Link: 
http://www.imdb.com/title/tt1619636/

Description: Two young women, Elizabeth and Taylor, travel to their father's summer home on a remote island for a vacation getaway. As they travel deeper into the island, a nightmare begins to unfold. An unmarked white van will not leave them be, as they begin to sink deeper into terror. It becomes clear to the women they are not welcome as a group of masked killers begin to torment, torture, and hack them to bits. What secrets does this island hold and what lengths will they go to preserve them?





General
Complete name                    : Death.Stop.Holocaust.2009.DVDRiP.XviD-SiC.avi
Format                           : AVI
Format/Info                      : Audio Video Interleave
File size                        : 1.37 GiB
Duration                         : 1h 19mn
Overall bit rate                 : 2 465 Kbps

Video
ID                               : 0
Format                           : MPEG-4 Visual
Format profile                   : Simple@L3
Format settings, BVOP            : 2
Format settings, QPel            : No
Format settings, GMC             : No warppoints
Format settings, Matrix          : Default (H.263)
Muxing mode                      : Packed bitstream
Codec ID                         : XVID
Codec ID/Hint                    : XviD
Duration                         : 1h 19mn
Bit rate                         : 2 201 Kbps
Width                            : 720 pixels
Height                           : 400 pixels
Display aspect ratio             : 16:9
Frame rate                       : 23.976 fps
Color space                      : YUV
Chroma subsampling               : 4:2:0
Bit depth                        : 8 bits
Scan type                        : Progressive
Compression mode                 : Lossy
Bits/(Pixel*Frame)               : 0.319
Stream size                      : 1.22 GiB (89%)
Writing library                  : XviD 1.0.3 (UTC 2004-12-20)

Audio
ID                               : 1
Format                           : AC-3
Format/Info                      : Audio Coding 3
Mode extension                   : CM (complete main)
Codec ID                         : 2000
Duration                         : 1h 19mn
Bit rate mode                    : Constant
Bit rate                         : 256 Kbps
Channel(s)                       : 2 channels
Channel positions                : Front: L R
Sampling rate                    : 48.0 KHz
Bit depth                        : 16 bits
Compression mode                 : Lossy
Stream size                      : 145 MiB (10%)
Alignment                        : Aligned on interleaves
Interleave, duration             : 64 ms (1.54 video frames)
Interleave, preload duration     : 192 ms
Title                            : VTS_01_1 T80 2_0ch 192Kbps DELAY 0ms_new

























Screenshots:
[img]http://img718.imageshack.us/img718/8564/vlcsnap2012013018h34m24.png[/img]
[img]http://img824.imageshack.us/img824/3441/vlcsnap2012013018h34m27.png[/img]
[img]http://img221.imageshack.us/img221/2715/vlcsnap2012013018h34m31.png[/img]
[img]http://img818.imageshack.us/img818/9645/vlcsnap2012013018h34m36.png[/img]




Note :  

Source: Friend of a friend. 

Enjoy!

Respects to T00NG0D, CM8, Rx, ELEKTRI4KA, PA, YeFsTe, MrRep and everyone in the struggle...